<svg xmlns="http://www.w3.org/2000/svg" width="1280" height="640" viewBox="0 0 1280 640" font-family="'SFMono-Regular','SF Mono','Menlo','DejaVu Sans Mono','Liberation Mono',monospace">
  <defs>
    <linearGradient id="logoGrad" gradientUnits="userSpaceOnUse" x1="112" y1="178" x2="1168" y2="338">
      <stop offset="0" stop-color="#00d18f"/>
      <stop offset="1" stop-color="#5ec8ff"/>
    </linearGradient>
    <radialGradient id="glow" cx="0.5" cy="0.4" r="0.6">
      <stop offset="0" stop-color="#00d18f" stop-opacity="0.16"/>
      <stop offset="1" stop-color="#00d18f" stop-opacity="0"/>
    </radialGradient>
    <clipPath id="round"><rect x="0.5" y="0.5" width="1279" height="639" rx="14"/></clipPath>
  </defs>

  <rect x="0.5" y="0.5" width="1279" height="639" rx="14" fill="#0d1117" stroke="#232b36"/>
  <g clip-path="url(#round)">
    <rect x="0" y="0" width="1280" height="640" fill="url(#glow)"/>

    <!-- titlebar -->
    <rect x="0" y="0" width="1280" height="50" fill="#161b22"/>
    <line x1="0" y1="50" x2="1280" y2="50" stroke="#232b36"/>
    <circle cx="33" cy="25" r="8" fill="#f85149"/>
    <circle cx="59" cy="25" r="8" fill="#d29922"/>
    <circle cx="85" cy="25" r="8" fill="#3fb950"/>
    <text x="109" y="31.12" font-size="17" fill="#8b949e">spinup — SpinupWP control center</text>

    <!-- logo (vector block font) -->
    <rect x="112" y="178" width="32" height="32" rx="2" fill="url(#logoGrad)"/>
    <rect x="144" y="178" width="32" height="32" rx="2" fill="url(#logoGrad)"/>
    <rect x="176" y="178" width="32" height="32" rx="2" fill="url(#logoGrad)"/>
    <rect x="208" y="178" width="32" height="32" rx="2" fill="url(#logoGrad)"/>
    <rect x="240" y="178" width="32" height="32" rx="2" fill="url(#logoGrad)"/>
    <rect x="112" y="210" width="32" height="32" rx="2" fill="url(#logoGrad)"/>
    <rect x="112" y="242" width="32" height="32" rx="2" fill="url(#logoGrad)"/>
    <rect x="144" y="242" width="32" height="32" rx="2" fill="url(#logoGrad)"/>
    <rect x="176" y="242" width="32" height="32" rx="2" fill="url(#logoGrad)"/>
    <rect x="208" y="242" width="32" height="32" rx="2" fill="url(#logoGrad)"/>
    <rect x="240" y="242" width="32" height="32" rx="2" fill="url(#logoGrad)"/>
    <rect x="240" y="274" width="32" height="32" rx="2" fill="url(#logoGrad)"/>
    <rect x="112" y="306" width="32" height="32" rx="2" fill="url(#logoGrad)"/>
    <rect x="144" y="306" width="32" height="32" rx="2" fill="url(#logoGrad)"/>
    <rect x="176" y="306" width="32" height="32" rx="2" fill="url(#logoGrad)"/>
    <rect x="208" y="306" width="32" height="32" rx="2" fill="url(#logoGrad)"/>
    <rect x="240" y="306" width="32" height="32" rx="2" fill="url(#logoGrad)"/>
    <rect x="304" y="178" width="32" height="32" rx="2" fill="url(#logoGrad)"/>
    <rect x="336" y="178" width="32" height="32" rx="2" fill="url(#logoGrad)"/>
    <rect x="368" y="178" width="32" height="32" rx="2" fill="url(#logoGrad)"/>
    <rect x="400" y="178" width="32" height="32" rx="2" fill="url(#logoGrad)"/>
    <rect x="432" y="178" width="32" height="32" rx="2" fill="url(#logoGrad)"/>
    <rect x="304" y="210" width="32" height="32" rx="2" fill="url(#logoGrad)"/>
    <rect x="432" y="210" width="32" height="32" rx="2" fill="url(#logoGrad)"/>
    <rect x="304" y="242" width="32" height="32" rx="2" fill="url(#logoGrad)"/>
    <rect x="336" y="242" width="32" height="32" rx="2" fill="url(#logoGrad)"/>
    <rect x="368" y="242" width="32" height="32" rx="2" fill="url(#logoGrad)"/>
    <rect x="400" y="242" width="32" height="32" rx="2" fill="url(#logoGrad)"/>
    <rect x="432" y="242" width="32" height="32" rx="2" fill="url(#logoGrad)"/>
    <rect x="304" y="274" width="32" height="32" rx="2" fill="url(#logoGrad)"/>
    <rect x="304" y="306" width="32" height="32" rx="2" fill="url(#logoGrad)"/>
    <rect x="496" y="178" width="32" height="32" rx="2" fill="url(#logoGrad)"/>
    <rect x="528" y="178" width="32" height="32" rx="2" fill="url(#logoGrad)"/>
    <rect x="560" y="178" width="32" height="32" rx="2" fill="url(#logoGrad)"/>
    <rect x="528" y="210" width="32" height="32" rx="2" fill="url(#logoGrad)"/>
    <rect x="528" y="242" width="32" height="32" rx="2" fill="url(#logoGrad)"/>
    <rect x="528" y="274" width="32" height="32" rx="2" fill="url(#logoGrad)"/>
    <rect x="496" y="306" width="32" height="32" rx="2" fill="url(#logoGrad)"/>
    <rect x="528" y="306" width="32" height="32" rx="2" fill="url(#logoGrad)"/>
    <rect x="560" y="306" width="32" height="32" rx="2" fill="url(#logoGrad)"/>
    <rect x="624" y="178" width="32" height="32" rx="2" fill="url(#logoGrad)"/>
    <rect x="752" y="178" width="32" height="32" rx="2" fill="url(#logoGrad)"/>
    <rect x="624" y="210" width="32" height="32" rx="2" fill="url(#logoGrad)"/>
    <rect x="656" y="210" width="32" height="32" rx="2" fill="url(#logoGrad)"/>
    <rect x="752" y="210" width="32" height="32" rx="2" fill="url(#logoGrad)"/>
    <rect x="624" y="242" width="32" height="32" rx="2" fill="url(#logoGrad)"/>
    <rect x="688" y="242" width="32" height="32" rx="2" fill="url(#logoGrad)"/>
    <rect x="752" y="242" width="32" height="32" rx="2" fill="url(#logoGrad)"/>
    <rect x="624" y="274" width="32" height="32" rx="2" fill="url(#logoGrad)"/>
    <rect x="720" y="274" width="32" height="32" rx="2" fill="url(#logoGrad)"/>
    <rect x="752" y="274" width="32" height="32" rx="2" fill="url(#logoGrad)"/>
    <rect x="624" y="306" width="32" height="32" rx="2" fill="url(#logoGrad)"/>
    <rect x="752" y="306" width="32" height="32" rx="2" fill="url(#logoGrad)"/>
    <rect x="816" y="178" width="32" height="32" rx="2" fill="url(#logoGrad)"/>
    <rect x="944" y="178" width="32" height="32" rx="2" fill="url(#logoGrad)"/>
    <rect x="816" y="210" width="32" height="32" rx="2" fill="url(#logoGrad)"/>
    <rect x="944" y="210" width="32" height="32" rx="2" fill="url(#logoGrad)"/>
    <rect x="816" y="242" width="32" height="32" rx="2" fill="url(#logoGrad)"/>
    <rect x="944" y="242" width="32" height="32" rx="2" fill="url(#logoGrad)"/>
    <rect x="816" y="274" width="32" height="32" rx="2" fill="url(#logoGrad)"/>
    <rect x="944" y="274" width="32" height="32" rx="2" fill="url(#logoGrad)"/>
    <rect x="816" y="306" width="32" height="32" rx="2" fill="url(#logoGrad)"/>
    <rect x="848" y="306" width="32" height="32" rx="2" fill="url(#logoGrad)"/>
    <rect x="880" y="306" width="32" height="32" rx="2" fill="url(#logoGrad)"/>
    <rect x="912" y="306" width="32" height="32" rx="2" fill="url(#logoGrad)"/>
    <rect x="944" y="306" width="32" height="32" rx="2" fill="url(#logoGrad)"/>
    <rect x="1008" y="178" width="32" height="32" rx="2" fill="url(#logoGrad)"/>
    <rect x="1040" y="178" width="32" height="32" rx="2" fill="url(#logoGrad)"/>
    <rect x="1072" y="178" width="32" height="32" rx="2" fill="url(#logoGrad)"/>
    <rect x="1104" y="178" width="32" height="32" rx="2" fill="url(#logoGrad)"/>
    <rect x="1136" y="178" width="32" height="32" rx="2" fill="url(#logoGrad)"/>
    <rect x="1008" y="210" width="32" height="32" rx="2" fill="url(#logoGrad)"/>
    <rect x="1136" y="210" width="32" height="32" rx="2" fill="url(#logoGrad)"/>
    <rect x="1008" y="242" width="32" height="32" rx="2" fill="url(#logoGrad)"/>
    <rect x="1040" y="242" width="32" height="32" rx="2" fill="url(#logoGrad)"/>
    <rect x="1072" y="242" width="32" height="32" rx="2" fill="url(#logoGrad)"/>
    <rect x="1104" y="242" width="32" height="32" rx="2" fill="url(#logoGrad)"/>
    <rect x="1136" y="242" width="32" height="32" rx="2" fill="url(#logoGrad)"/>
    <rect x="1008" y="274" width="32" height="32" rx="2" fill="url(#logoGrad)"/>
    <rect x="1008" y="306" width="32" height="32" rx="2" fill="url(#logoGrad)"/>

    <!-- tagline + pulse -->
    <text x="640" y="420" font-size="26" text-anchor="middle" fill="#e6edf3">Terminal control center for your SpinupWP fleet</text>
    <text x="640" y="460" font-size="20" text-anchor="middle" fill="#0a8f64" letter-spacing="2">· · • ● • · · · · · · ·</text>
    <text x="640" y="520" font-size="17" text-anchor="middle" fill="#8b949e">Fleet dashboard · server &amp; site browser · global search · live activity · htop-style health over SSH</text>

    <!-- faux status bar (mirrors the real app chrome) -->
    <rect x="0" y="596" width="1280" height="44" fill="#161b22"/>
    <line x1="0" y1="596" x2="1280" y2="596" stroke="#232b36"/>
    <text x="20" y="625" font-size="18" xml:space="preserve"><tspan fill="#00d18f">◆ SpinupWP</tspan><tspan fill="#8b949e">     1 Dashboard    2 Servers    3 Search    4 Events</tspan></text>
    <text x="1260" y="625" font-size="18" text-anchor="end" fill="#8b949e">20 servers · 171 sites</text>
  </g>
</svg>
